<svg id="Camada_1" data-name="Camada 1" xmlns="http://www.w3.org/2000/svg" viewBox="0 0 511.3 437.73"><defs><style>.cls-1{fill:#1d1d1b;}</style></defs><path class="cls-1" d="M204.76,389.48c-10.51,19.87-20.5,38.78-30.52,57.67-7.56,14.27-18,20.22-30.59,17.32-8.25-1.9-14-6.92-18-14.44q-46.2-87.64-92.58-175.18c-9.55-18.06-19-36.18-28.56-54.22-10.35-19.48,1.26-39.29,23.4-39.5,19.92-.18,39.85-.21,59.77.06,6.23.09,6.69-1.55,3.94-6.65Q74.86,143.37,58.53,112C42.67,81.31,60.85,51.3,95.18,51.29q187.7,0,375.38,0c33.7,0,51.42,29.76,35.57,59.61q-93.48,176.1-187,352.18c-12,22.59-31.57,31.08-52.59,22.83-9.65-3.78-16.19-10.74-20.93-19.75q-19.08-36.27-38.32-72.45C206.74,392.63,206.05,391.61,204.76,389.48Zm.72-208.08c-26,0-52.06.67-78-.26-14.67-.53-26.37,11.46-17.34,28.17,26.6,49.2,52.51,98.78,78.53,148.29,3.65,6.94,8.57,11.72,16.58,11.54,7.59-.17,12.25-4.73,15.79-11.46q39.34-74.56,79.14-148.91c8.37-15.7,1.38-27.33-16.6-27.36Q244.5,181.35,205.48,181.4Z" transform="translate(-0.7 -51.27)"/></svg>